<svg xmlns="http://www.w3.org/2000/svg" xmlns:xlink="http://www.w3.org/1999/xlink" xmlns:lucid="lucid" width="1062" height="342"><g transform="translate(-109 -202)" lucid:page-tab-id="MdxL_cNJ~2za"><path d="M180 386a6 6 0 0 1 6-6h188a6 6 0 0 1 6 6v68a6 6 0 0 1-6 6H186a6 6 0 0 1-6-6z" stroke="#5e5e5e" stroke-width="3" fill="#fff"/><use xlink:href="#a" transform="matrix(1,0,0,1,192,392) translate(33.216049382716044 31.77777777777778)"/><path d="M900 386a6 6 0 0 1 6-6h188a6 6 0 0 1 6 6v68a6 6 0 0 1-6 6H906a6 6 0 0 1-6-6z" stroke="#5e5e5e" stroke-width="3" fill="#fff"/><use xlink:href="#b" transform="matrix(1,0,0,1,912,392) translate(28.21604938271605 31.77777777777778)"/><path d="M634.93 363.2a9.5 9.5 0 0 1 10.14 0l84.86 53.6a3.8 3.8 0 0 1 0 6.4l-84.86 53.6a9.5 9.5 0 0 1-10.14 0l-84.86-53.6a3.8 3.8 0 0 1 0-6.4z" stroke="#5e5e5e" stroke-width="3" fill="#fff"/><use xlink:href="#c" transform="matrix(1,0,0,1,550,365) translate(36.33216049382716 59.02777777777778)"/><path d="M382.46 420H528.3" stroke="#5e5e5e" stroke-width="2" fill="none"/><path d="M382.5 421h-1.04v-2h1.03z" stroke="#5e5e5e" stroke-width=".05" fill="#5e5e5e"/><path d="M543.56 420l-14.26 4.64v-9.28z" stroke="#5e5e5e" stroke-width="2" fill="#5e5e5e"/><path d="M734.2 420h145.83" stroke="#5e5e5e" stroke-width="2" fill="none"/><path d="M734.23 421h-1.13l.1-1-.1-1h1.13z" stroke="#5e5e5e" stroke-width=".05" fill="#5e5e5e"/><path d="M895.3 420l-14.27 4.64v-9.28z" stroke="#5e5e5e" stroke-width="2" fill="#5e5e5e"/><path d="M380 386a6 6 0 0 1 6-6h68a6 6 0 0 1 6 6v28a6 6 0 0 1-6 6h-68a6 6 0 0 1-6-6z" stroke="#000" stroke-opacity="0" stroke-width="3" fill="#fff" fill-opacity="0"/><use xlink:href="#d" transform="matrix(1,0,0,1,385,385) translate(7.314814814814817 19.65277777777778)"/><use xlink:href="#e" transform="matrix(1,0,0,1,385,385) translate(39.351851851851855 19.65277777777778)"/><path d="M800 386a6 6 0 0 1 6-6h68a6 6 0 0 1 6 6v28a6 6 0 0 1-6 6h-68a6 6 0 0 1-6-6z" stroke="#000" stroke-opacity="0" stroke-width="3" fill="#fff" fill-opacity="0"/><use xlink:href="#f" transform="matrix(1,0,0,1,805,385) translate(9.135802469135804 19.65277777777778)"/><use xlink:href="#g" transform="matrix(1,0,0,1,805,385) translate(41.17283950617284 19.65277777777778)"/><path d="M218.67 377.56v-46.93" stroke="#5e5e5e" stroke-width="2" fill="none"/><path d="M219.67 378.56h-2v-1.02h2z" stroke="#5e5e5e" stroke-width=".05" fill="#5e5e5e"/><path d="M233.67 315.96c0 8.3-6.72 15-15 15-8.3 0-15-6.7-15-15 0-8.28 6.7-15 15-15 8.28 0 15 6.72 15 15z" stroke="#5e5e5e" stroke-width="2" fill="#5e5e5e"/><path d="M942.67 377.56v-46.93" stroke="#5e5e5e" stroke-width="2" fill="none"/><path d="M943.67 378.56h-2v-1.03h2z" stroke="#5e5e5e" stroke-width=".05" fill="#5e5e5e"/><path d="M957.67 315.96c0 8.3-6.7 15-15 15-8.28 0-15-6.7-15-15 0-8.28 6.72-15 15-15 8.3 0 15 6.72 15 15z" stroke="#5e5e5e" stroke-width="2" fill="#5e5e5e"/><path d="M341.33 377.5v-46.83" stroke="#5e5e5e" stroke-width="2" fill="none"/><path d="M342.33 378.5h-2v-1h2z" stroke="#5e5e5e" stroke-width=".05" fill="#5e5e5e"/><path d="M356.33 316c0 8.28-6.7 15-15 15-8.28 0-15-6.72-15-15 0-8.28 6.72-15 15-15 8.3 0 15 6.72 15 15z" stroke="#5e5e5e" stroke-width="2" fill="#fff"/><path d="M1064 377.5v-46.87" stroke="#5e5e5e" stroke-width="2" fill="none"/><path d="M1065 378.5h-2v-1h2z" stroke="#5e5e5e" stroke-width=".05" fill="#5e5e5e"/><path d="M1079 315.96c0 8.3-6.7 15-15 15-8.28 0-15-6.7-15-15 0-8.28 6.72-15 15-15 8.3 0 15 6.72 15 15z" stroke="#5e5e5e" stroke-width="2" fill="#fff"/><path d="M168.67 266a6 6 0 0 1 6-6h88a6 6 0 0 1 6 6v28a6 6 0 0 1-6 6h-88a6 6 0 0 1-6-6z" stroke="#000" stroke-opacity="0" stroke-width="3" fill="#fff" fill-opacity="0"/><use xlink:href="#h" transform="matrix(1,0,0,1,173.66714712622354,265) translate(11.697530864197532 19.65277777777778)"/><path d="M280 266a6 6 0 0 1 6-6h168a6 6 0 0 1 6 6v28a6 6 0 0 1-6 6H286a6 6 0 0 1-6-6z" stroke="#000" stroke-opacity="0" stroke-width="3" fill="#fff" fill-opacity="0"/><use xlink:href="#i" transform="matrix(1,0,0,1,285,265) translate(1.2654320987654444 19.65277777777778)"/><path d="M892.67 266a6 6 0 0 1 6-6h88a6 6 0 0 1 6 6v28a6 6 0 0 1-6 6h-88a6 6 0 0 1-6-6z" stroke="#000" stroke-opacity="0" stroke-width="3" fill="#fff" fill-opacity="0"/><use xlink:href="#j" transform="matrix(1,0,0,1,897.6707997983759,265) translate(17.25308641975309 19.65277777777778)"/><path d="M1005 267.33a6 6 0 0 1 6-6h106a6 6 0 0 1 6 6V294a6 6 0 0 1-6 6h-106a6 6 0 0 1-6-6z" stroke="#000" stroke-opacity="0" stroke-width="3" fill="#fff" fill-opacity="0"/><g><use xlink:href="#k" transform="matrix(1,0,0,1,1010.0030707462361,266.33333333333337) translate(2.8580246913580183 19.59027777777778)"/></g><defs><path fill="#333" d="M205 0l-28-72H64L36 0H1l101-248h38L239 0h-34zm-38-99l-47-123c-12 45-31 82-46 123h93" id="l"/><path fill="#333" d="M212-179c-10-28-35-45-73-45-59 0-87 40-87 99 0 60 29 101 89 101 43 0 62-24 78-52l27 14C228-24 195 4 139 4 59 4 22-46 18-125c-6-104 99-153 187-111 19 9 31 26 39 46" id="m"/><path fill="#333" d="M140-251c81 0 123 46 123 126C263-46 219 4 140 4 59 4 17-45 17-125s42-126 123-126zm0 227c63 0 89-41 89-101s-29-99-89-99c-61 0-89 39-89 99S79-25 140-24" id="n"/><path fill="#333" d="M232-93c-1 65-40 97-104 97C67 4 28-28 28-90v-158h33c8 89-33 224 67 224 102 0 64-133 71-224h33v155" id="o"/><path fill="#333" d="M190 0L58-211 59 0H30v-248h39L202-35l-2-213h31V0h-41" id="p"/><path fill="#333" d="M127-220V0H93v-220H8v-28h204v28h-85" id="q"/><g id="a"><use transform="matrix(0.06172839506172839,0,0,0.06172839506172839,0,0)" xlink:href="#l"/><use transform="matrix(0.06172839506172839,0,0,0.06172839506172839,14.814814814814813,0)" xlink:href="#m"/><use transform="matrix(0.06172839506172839,0,0,0.06172839506172839,30.80246913580247,0)" xlink:href="#m"/><use transform="matrix(0.06172839506172839,0,0,0.06172839506172839,46.79012345679012,0)" xlink:href="#n"/><use transform="matrix(0.06172839506172839,0,0,0.06172839506172839,64.07407407407408,0)" xlink:href="#o"/><use transform="matrix(0.06172839506172839,0,0,0.06172839506172839,80.06172839506173,0)" xlink:href="#p"/><use transform="matrix(0.06172839506172839,0,0,0.06172839506172839,96.0493827160494,0)" xlink:href="#q"/></g><path fill="#333" d="M30 0v-248h33v221h125V0H30" id="r"/><path fill="#333" d="M33 0v-248h34V0H33" id="s"/><g id="b"><use transform="matrix(0.06172839506172839,0,0,0.06172839506172839,0,0)" xlink:href="#m"/><use transform="matrix(0.06172839506172839,0,0,0.06172839506172839,15.987654320987653,0)" xlink:href="#n"/><use transform="matrix(0.06172839506172839,0,0,0.06172839506172839,33.2716049382716,0)" xlink:href="#l"/><use transform="matrix(0.06172839506172839,0,0,0.06172839506172839,48.08641975308642,0)" xlink:href="#r"/><use transform="matrix(0.06172839506172839,0,0,0.06172839506172839,60.432098765432094,0)" xlink:href="#s"/><use transform="matrix(0.06172839506172839,0,0,0.06172839506172839,66.60493827160494,0)" xlink:href="#q"/><use transform="matrix(0.06172839506172839,0,0,0.06172839506172839,80.12345679012346,0)" xlink:href="#s"/><use transform="matrix(0.06172839506172839,0,0,0.06172839506172839,86.29629629629629,0)" xlink:href="#n"/><use transform="matrix(0.06172839506172839,0,0,0.06172839506172839,103.58024691358024,0)" xlink:href="#p"/></g><path fill="#333" d="M160-131c35 5 61 23 61 61C221 17 115-2 30 0v-248c76 3 177-17 177 60 0 33-19 50-47 57zm-97-11c50-1 110 9 110-42 0-47-63-36-110-37v79zm0 115c55-2 124 14 124-45 0-56-70-42-124-44v89" id="t"/><path fill="#333" d="M30 0v-248h187v28H63v79h144v27H63v87h162V0H30" id="u"/><path fill="#333" d="M143 4C61 4 22-44 18-125c-5-107 100-154 193-111 17 8 29 25 37 43l-32 9c-13-25-37-40-76-40-61 0-88 39-88 99 0 61 29 100 91 101 35 0 62-11 79-27v-45h-74v-28h105v86C228-13 192 4 143 4" id="v"/><path fill="#333" d="M185-189c-5-48-123-54-124 2 14 75 158 14 163 119 3 78-121 87-175 55-17-10-28-26-33-46l33-7c5 56 141 63 141-1 0-78-155-14-162-118-5-82 145-84 179-34 5 7 8 16 11 25" id="w"/><g id="c"><use transform="matrix(0.06172839506172839,0,0,0.06172839506172839,0,0)" xlink:href="#t"/><use transform="matrix(0.06172839506172839,0,0,0.06172839506172839,14.814814814814813,0)" xlink:href="#u"/><use transform="matrix(0.06172839506172839,0,0,0.06172839506172839,29.629629629629626,0)" xlink:href="#r"/><use transform="matrix(0.06172839506172839,0,0,0.06172839506172839,41.9753086419753,0)" xlink:href="#n"/><use transform="matrix(0.06172839506172839,0,0,0.06172839506172839,59.25925925925925,0)" xlink:href="#p"/><use transform="matrix(0.06172839506172839,0,0,0.06172839506172839,75.24691358024691,0)" xlink:href="#v"/><use transform="matrix(0.06172839506172839,0,0,0.06172839506172839,92.53086419753086,0)" xlink:href="#w"/></g><path fill="#333" d="M87 75C49 33 22-17 22-94c0-76 28-126 65-167h31c-38 41-64 92-64 168S80 34 118 75H87" id="x"/><path fill="#333" d="M27 0v-27h64v-190l-56 39v-29l58-41h29v221h61V0H27" id="y"/><path fill="#333" d="M68-38c1 34 0 65-14 84H32c9-13 17-26 17-46H33v-38h35" id="z"/><g id="d"><use transform="matrix(0.06172839506172839,0,0,0.06172839506172839,0,0)" xlink:href="#x"/><use transform="matrix(0.06172839506172839,0,0,0.06172839506172839,7.345679012345679,0)" xlink:href="#y"/><use transform="matrix(0.06172839506172839,0,0,0.06172839506172839,19.691358024691358,0)" xlink:href="#z"/></g><path fill="#333" d="M33-261c38 41 65 92 65 168S71 34 33 75H2C39 34 66-17 66-93S39-220 2-261h31" id="A"/><g id="e"><use transform="matrix(0.06172839506172839,0,0,0.06172839506172839,0,0)" xlink:href="#p"/><use transform="matrix(0.06172839506172839,0,0,0.06172839506172839,15.987654320987653,0)" xlink:href="#A"/></g><path fill="#333" d="M101-251c68 0 85 55 85 127S166 4 100 4C33 4 14-52 14-124c0-73 17-127 87-127zm-1 229c47 0 54-49 54-102s-4-102-53-102c-51 0-55 48-55 102 0 53 5 102 54 102" id="B"/><g id="f"><use transform="matrix(0.06172839506172839,0,0,0.06172839506172839,0,0)" xlink:href="#x"/><use transform="matrix(0.06172839506172839,0,0,0.06172839506172839,7.345679012345679,0)" xlink:href="#B"/><use transform="matrix(0.06172839506172839,0,0,0.06172839506172839,19.691358024691358,0)" xlink:href="#z"/></g><g id="g"><use transform="matrix(0.06172839506172839,0,0,0.06172839506172839,0,0)" xlink:href="#y"/><use transform="matrix(0.06172839506172839,0,0,0.06172839506172839,12.345679012345679,0)" xlink:href="#A"/></g><path fill="#333" d="M106-169C34-169 62-67 57 0H25v-261h32l-1 103c12-21 28-36 61-36 89 0 53 116 60 194h-32v-121c2-32-8-49-39-48" id="C"/><path fill="#333" d="M141-36C126-15 110 5 73 4 37 3 15-17 15-53c-1-64 63-63 125-63 3-35-9-54-41-54-24 1-41 7-42 31l-33-3c5-37 33-52 76-52 45 0 72 20 72 64v82c-1 20 7 32 28 27v20c-31 9-61-2-59-35zM48-53c0 20 12 33 32 33 41-3 63-29 60-74-43 2-92-5-92 41" id="D"/><path fill="#333" d="M117-194c89-4 53 116 60 194h-32v-121c0-31-8-49-39-48C34-167 62-67 57 0H25l-1-190h30c1 10-1 24 2 32 11-22 29-35 61-36" id="E"/><path fill="#333" d="M85-194c31 0 48 13 60 33l-1-100h32l1 261h-30c-2-10 0-23-3-31C134-8 116 4 85 4 32 4 16-35 15-94c0-66 23-100 70-100zm9 24c-40 0-46 34-46 75 0 40 6 74 45 74 42 0 51-32 51-76 0-42-9-74-50-73" id="F"/><path fill="#333" d="M24 0v-261h32V0H24" id="G"/><path fill="#333" d="M100-194c63 0 86 42 84 106H49c0 40 14 67 53 68 26 1 43-12 49-29l28 8c-11 28-37 45-77 45C44 4 14-33 15-96c1-61 26-98 85-98zm52 81c6-60-76-77-97-28-3 7-6 17-6 28h103" id="H"/><g id="h"><use transform="matrix(0.06172839506172839,0,0,0.06172839506172839,0,0)" xlink:href="#C"/><use transform="matrix(0.06172839506172839,0,0,0.06172839506172839,12.345679012345679,0)" xlink:href="#D"/><use transform="matrix(0.06172839506172839,0,0,0.06172839506172839,24.691358024691358,0)" xlink:href="#E"/><use transform="matrix(0.06172839506172839,0,0,0.06172839506172839,37.03703703703704,0)" xlink:href="#F"/><use transform="matrix(0.06172839506172839,0,0,0.06172839506172839,49.382716049382715,0)" xlink:href="#G"/><use transform="matrix(0.06172839506172839,0,0,0.06172839506172839,54.25925925925926,0)" xlink:href="#H"/></g><path fill="#333" d="M115-194c55 1 70 41 70 98S169 2 115 4C84 4 66-9 55-30l1 105H24l-1-265h31l2 30c10-21 28-34 59-34zm-8 174c40 0 45-34 45-75s-6-73-45-74c-42 0-51 32-51 76 0 43 10 73 51 73" id="I"/><path fill="#333" d="M100-194c62-1 85 37 85 99 1 63-27 99-86 99S16-35 15-95c0-66 28-99 85-99zM99-20c44 1 53-31 53-75 0-43-8-75-51-75s-53 32-53 75 10 74 51 75" id="J"/><path fill="#333" d="M24-231v-30h32v30H24zM24 0v-190h32V0H24" id="K"/><path fill="#333" d="M59-47c-2 24 18 29 38 22v24C64 9 27 4 27-40v-127H5v-23h24l9-43h21v43h35v23H59v120" id="L"/><path fill="#333" d="M96-169c-40 0-48 33-48 73s9 75 48 75c24 0 41-14 43-38l32 2c-6 37-31 61-74 61-59 0-76-41-82-99-10-93 101-131 147-64 4 7 5 14 7 22l-32 3c-4-21-16-35-41-35" id="M"/><path fill="#333" d="M-5 72V49h209v23H-5" id="N"/><g id="i"><use transform="matrix(0.06172839506172839,0,0,0.06172839506172839,0,0)" xlink:href="#I"/><use transform="matrix(0.06172839506172839,0,0,0.06172839506172839,12.345679012345679,0)" xlink:href="#J"/><use transform="matrix(0.06172839506172839,0,0,0.06172839506172839,24.691358024691358,0)" xlink:href="#G"/><use transform="matrix(0.06172839506172839,0,0,0.06172839506172839,29.5679012345679,0)" xlink:href="#K"/><use transform="matrix(0.06172839506172839,0,0,0.06172839506172839,34.44444444444444,0)" xlink:href="#L"/><use transform="matrix(0.06172839506172839,0,0,0.06172839506172839,40.617283950617285,0)" xlink:href="#K"/><use transform="matrix(0.06172839506172839,0,0,0.06172839506172839,45.49382716049383,0)" xlink:href="#M"/><use transform="matrix(0.06172839506172839,0,0,0.06172839506172839,56.60493827160494,0)" xlink:href="#D"/><use transform="matrix(0.06172839506172839,0,0,0.06172839506172839,68.95061728395062,0)" xlink:href="#G"/><use transform="matrix(0.06172839506172839,0,0,0.06172839506172839,73.82716049382717,0)" xlink:href="#N"/><use transform="matrix(0.06172839506172839,0,0,0.06172839506172839,86.17283950617285,0)" xlink:href="#M"/><use transform="matrix(0.06172839506172839,0,0,0.06172839506172839,97.28395061728396,0)" xlink:href="#J"/><use transform="matrix(0.06172839506172839,0,0,0.06172839506172839,109.62962962962965,0)" xlink:href="#D"/><use transform="matrix(0.06172839506172839,0,0,0.06172839506172839,121.97530864197533,0)" xlink:href="#G"/><use transform="matrix(0.06172839506172839,0,0,0.06172839506172839,126.85185185185188,0)" xlink:href="#K"/><use transform="matrix(0.06172839506172839,0,0,0.06172839506172839,131.7283950617284,0)" xlink:href="#L"/><use transform="matrix(0.06172839506172839,0,0,0.06172839506172839,137.90123456790124,0)" xlink:href="#K"/><use transform="matrix(0.06172839506172839,0,0,0.06172839506172839,142.77777777777777,0)" xlink:href="#J"/><use transform="matrix(0.06172839506172839,0,0,0.06172839506172839,155.12345679012344,0)" xlink:href="#E"/></g><path fill="#333" d="M210-169c-67 3-38 105-44 169h-31v-121c0-29-5-50-35-48C34-165 62-65 56 0H25l-1-190h30c1 10-1 24 2 32 10-44 99-50 107 0 11-21 27-35 58-36 85-2 47 119 55 194h-31v-121c0-29-5-49-35-48" id="O"/><g id="j"><use transform="matrix(0.06172839506172839,0,0,0.06172839506172839,0,0)" xlink:href="#E"/><use transform="matrix(0.06172839506172839,0,0,0.06172839506172839,12.345679012345679,0)" xlink:href="#D"/><use transform="matrix(0.06172839506172839,0,0,0.06172839506172839,24.691358024691358,0)" xlink:href="#O"/><use transform="matrix(0.06172839506172839,0,0,0.06172839506172839,43.148148148148145,0)" xlink:href="#H"/></g><path fill="#333" d="M177-190C167-65 218 103 67 71c-23-6-38-20-44-43l32-5c15 47 100 32 89-28v-30C133-14 115 1 83 1 29 1 15-40 15-95c0-56 16-97 71-98 29-1 48 16 59 35 1-10 0-23 2-32h30zM94-22c36 0 50-32 50-73 0-42-14-75-50-75-39 0-46 34-46 75s6 73 46 73" id="P"/><path fill="#333" d="M114-163C36-179 61-72 57 0H25l-1-190h30c1 12-1 29 2 39 6-27 23-49 58-41v29" id="Q"/><g id="k"><use transform="matrix(0.06172839506172839,0,0,0.06172839506172839,0,0)" xlink:href="#G"/><use transform="matrix(0.06172839506172839,0,0,0.06172839506172839,4.876543209876543,0)" xlink:href="#J"/><use transform="matrix(0.06172839506172839,0,0,0.06172839506172839,17.22222222222222,0)" xlink:href="#P"/><use transform="matrix(0.06172839506172839,0,0,0.06172839506172839,29.5679012345679,0)" xlink:href="#J"/><use transform="matrix(0.06172839506172839,0,0,0.06172839506172839,41.913580246913575,0)" xlink:href="#N"/><use transform="matrix(0.06172839506172839,0,0,0.06172839506172839,54.25925925925925,0)" xlink:href="#M"/><use transform="matrix(0.06172839506172839,0,0,0.06172839506172839,65.37037037037037,0)" xlink:href="#J"/><use transform="matrix(0.06172839506172839,0,0,0.06172839506172839,77.71604938271605,0)" xlink:href="#G"/><use transform="matrix(0.06172839506172839,0,0,0.06172839506172839,82.5925925925926,0)" xlink:href="#J"/><use transform="matrix(0.06172839506172839,0,0,0.06172839506172839,94.93827160493828,0)" xlink:href="#Q"/></g></defs></g></svg>